<svg width="33" height="30" viewBox="0 0 33 30" fill="none" xmlns="http://www.w3.org/2000/svg">
<path d="M32.4142 16.4142C33.1953 15.6332 33.1953 14.3668 32.4142 13.5858L19.6863 0.857864C18.9052 0.0768158 17.6389 0.0768158 16.8579 0.857864C16.0768 1.63891 16.0768 2.90524 16.8579 3.68629L28.1716 15L16.8579 26.3137C16.0768 27.0948 16.0768 28.3611 16.8579 29.1421C17.6389 29.9232 18.9052 29.9232 19.6863 29.1421L32.4142 16.4142ZM30 17H31V13H30V17Z" fill="#D9674F"/>
<path d="M16.4142 16.4142C17.1953 15.6332 17.1953 14.3668 16.4142 13.5858L3.68629 0.857864C2.90524 0.0768158 1.63891 0.0768158 0.857864 0.857864C0.0768158 1.63891 0.0768158 2.90524 0.857864 3.68629L12.1716 15L0.857864 26.3137C0.0768158 27.0948 0.0768158 28.3611 0.857864 29.1421C1.63891 29.9232 2.90524 29.9232 3.68629 29.1421L16.4142 16.4142ZM14 17H15V13H14V17Z" fill="#D9674F"/>
</svg>
