<svg width="250" height="250" viewBox="0 0 250 250" fill="none" xmlns="http://www.w3.org/2000/svg">
<path d="M124.998 142.857C149.654 142.857 169.641 122.87 169.641 98.2146C169.641 73.5591 149.654 53.5718 124.998 53.5718C100.343 53.5718 80.3555 73.5591 80.3555 98.2146C80.3555 122.87 100.343 142.857 124.998 142.857Z" stroke="#1D1C1A" stroke-width="14.2857" stroke-linecap="round" stroke-linejoin="round"/>
<path d="M48.75 212.5C56.7186 199.42 67.918 188.61 81.2716 181.109C94.6251 173.607 109.684 169.667 125 169.667C140.316 169.667 155.375 173.607 168.728 181.109C182.082 188.61 193.281 199.42 201.25 212.5" stroke="#1D1C1A" stroke-width="14.2857" stroke-linecap="round" stroke-linejoin="round"/>
<path d="M124.999 241.072C189.104 241.072 241.071 189.105 241.071 125C241.071 60.8957 189.104 8.92871 124.999 8.92871C60.8947 8.92871 8.92773 60.8957 8.92773 125C8.92773 189.105 60.8947 241.072 124.999 241.072Z" stroke="#1D1C1A" stroke-width="14.2857" stroke-linecap="round" stroke-linejoin="round"/>
</svg>
