<svg width="250" height="250" viewBox="0 0 250 250" fill="none" xmlns="http://www.w3.org/2000/svg">
<path d="M124.999 229.167C124.999 229.167 41.666 166.667 41.666 104.167C41.666 52.0835 83.3327 20.8335 124.999 20.8335C166.666 20.8335 208.333 52.0835 208.333 104.167C208.333 166.667 124.999 229.167 124.999 229.167ZM124.999 135.417C133.287 135.417 141.236 132.124 147.096 126.264C152.957 120.403 156.249 112.455 156.249 104.167C156.249 95.8788 152.957 87.9303 147.096 82.0697C141.236 76.2092 133.287 72.9168 124.999 72.9168C116.711 72.9168 108.763 76.2092 102.902 82.0697C97.0417 87.9303 93.7493 95.8788 93.7493 104.167C93.7493 112.455 97.0417 120.403 102.902 126.264C108.763 132.124 116.711 135.417 124.999 135.417Z" stroke="#1D1C1A" stroke-width="16.6667"/>
</svg>
