<svg width="270" height="270" viewBox="0 0 270 270" fill="none" xmlns="http://www.w3.org/2000/svg">
<path d="M185.625 67.5V75.9375M185.625 109.687V118.125M185.625 151.875V160.312M185.625 194.062V202.5M84.375 143.437H143.438M84.375 168.75H118.125M37.9688 59.0625C30.9825 59.0625 25.3125 64.7325 25.3125 71.7187V105.761C30.4509 108.72 34.7189 112.98 37.6866 118.113C40.6543 123.246 42.2168 129.071 42.2168 135C42.2168 140.929 40.6543 146.754 37.6866 151.887C34.7189 157.02 30.4509 161.28 25.3125 164.239V198.281C25.3125 205.267 30.9825 210.937 37.9688 210.937H232.031C239.017 210.937 244.688 205.267 244.688 198.281V164.239C239.549 161.28 235.281 157.02 232.313 151.887C229.346 146.754 227.783 140.929 227.783 135C227.783 129.071 229.346 123.246 232.313 118.113C235.281 112.98 239.549 108.72 244.688 105.761V71.7187C244.688 64.7325 239.017 59.0625 232.031 59.0625H37.9688Z" stroke="#1D1C1A" stroke-width="12.5" stroke-linecap="round" stroke-linejoin="round"/>
</svg>
